<?xml version="1.0" encoding="UTF-8"?>
<svg id="Layer_1" xmlns="http://www.w3.org/2000/svg" version="1.1" viewBox="0 0 576 792">
  <!-- Generator: Adobe Illustrator 29.0.0, SVG Export Plug-In . SVG Version: 2.1.0 Build 186)  -->
  <defs>
    <style>
      .st0 {
        fill: #191919;
        stroke: #231f20;
        stroke-miterlimit: 10;
      }

      .st1 {
        fill: #fff;
      }

      .st2 {
        fill: #FFD772;
      }
    </style>
  </defs>
  <path class="st2" d="M126.26,754.77c-.94-2.51-2.65-18.14-6.07-49.4-3.23-29.51-4.84-44.26-6.07-62.19-1.93-28.32-3.55-52.02-1.52-83.42,1.49-22.98,2.99-20.05,4.55-45.5,1.08-17.69.99-29.47,6.07-45.5,2.93-9.26,6.5-16.5,9.1-21.23,22.42-10.64,46.45-23.6,71.29-39.44,11.84-7.55,22.95-15.17,33.37-22.75,2.31-4.84,4.62-9.69,6.94-14.53,1.35,2.95,2.51,4.36,3.46,4.23,2.42-.32,3.54-10.55,3.35-30.7-3.76-5.24-5.84-9.89-7.05-13.27-1.22-3.41-2.68-8.62-4.56-15.34-.7-2.5-1.35-4.89-2.9-7.88-1.87-3.59-3.8-5.66-4.56-6.64-4.27-5.44-1.06-13.45,1.8-31.83,2.7-17.35,1.26-19.32,4.8-24.62,3.83-5.74,6.5-4.9,12.61-13.21,5.37-7.31,4.91-10.14,9.61-13.81,4.29-3.36,6.63-2.52,14.41-5.4,12.34-4.57,10.96-8.34,19.82-10.81,8.37-2.33,18.48-1.45,26.42,2.4,4.05,1.96,4.52,3.24,9.01,4.8,7.7,2.69,10.12.27,16.21,3,5.29,2.37,5.01,4.88,10.81,7.21,4.58,1.84,8.64.85,10.21,1.8,18.19,11,30.39,18.91,33.02,31.11,1.73,7.99,4.24,7.51-.6,21.14-3.03,8.53-2.04,18.09,1.2,33.03.47,2.14-.08,4.13-.6,6.61-1.58,7.61-5.03,8.71-6,14.41-.61,3.56.4,6.78,2.4,13.21,1.52,4.87,3.88,9.99,4.8,12.01.61,1.32,1.13,2.4,1.5,3.15-4.58,1.65-9.16,3.3-13.74,4.96-.15,3.83-.3,7.66-.45,11.49-1.05,1.58-2.1,3.15-3.15,4.73.3,2.03.6,4.05.9,6.08-.67.57-1.65,1.52-2.48,2.93-2.18,3.7-.99,6.66-3.15,8.34-1.58,1.23-3.07.31-3.83,1.35-.67.92-.53,3.06,3.6,8.56,20.27,11.11,40.53,22.21,60.8,33.32-.79,8.48-1.28,21.06.8,36.11,1.44,10.42,3.12,14.84,4.67,24.27,2.89,17.55,1.5,29.14.93,42.95-1.49,36.36,4.98,32.34,3.73,68.16-.96,27.64-5.78,57.89-6.54,62.55-.45,2.78-1.46,8.83-2.8,17.74-1.5,9.98-3.14,20.93-4.67,34.54-.9,7.98-1.95,18.63-2.8,31.31-273.32,46.06-303.67,13.38-308.66,0Z"/>
  <path class="st1" d="M238.8,385.28c1.68-4.54,3.35-9.08,5.03-13.62-.36-.37.07.7,5.87,11.53,3.06,5.71,10.94,19.13,23.48,31.02,13.48,12.79,25.86,24.61,38.99,22.01,9.8-1.95,20-11.93,30.12-21.83,1.19-1.17,2.16-2.15,2.8-2.82.09,3.75.14,8.97,0,15.2-.86,36.96-8,64.38-9.39,70.53-3.31,14.66-9.59,35.21-22.49,58.73-5.32-9.16-12.73-22.14-21.24-37.91-12.74-23.59-21.28-39.42-29.99-59.57-6.43-14.89-14.49-35.68-21.66-61.65-.5-3.87-1-7.75-1.5-11.62Z"/>
  <path class="st0" d="M272.28,414.03c.51,14.64,1.75,32.2,2.26,46.84,8.17-1.72,17.44-5.3,25.03-12.77.59-.58,1.15-1.16,1.68-1.75l14.85.15c.58.87,1.21,1.75,1.89,2.62,5.43,6.93,12.24,10.98,17.91,13.39,2.09-15.67,4.17-31.35,6.26-47.02-2.43-.03-5.56.23-9.03,1.31-8.67,2.71-13.66,8.84-15.58,11.5-5.92.19-11.84.39-17.76.58-1.4-2.1-7.06-8.53-16.6-11.79-4.26-1.46-6.44-3.11-10.92-3.06Z"/>
</svg>