<?xml version="1.0" encoding="UTF-8"?>
<svg id="Layer_1" xmlns="http://www.w3.org/2000/svg" version="1.1" viewBox="0 0 1920 1080">
  <!-- Generator: Adobe Illustrator 29.0.0, SVG Export Plug-In . SVG Version: 2.1.0 Build 186)  -->
  <defs>
    <style>
      .st0 {
        fill: #fff;
      }

      .st0, .st1 {
        stroke: #000;
        stroke-miterlimit: 10;
      }

      .st1 {
        fill: none;
      }
    </style>
  </defs>
  <path class="st1" d="M927.93,705.93c-2.1.05-12.16.98-15.1,1.59-10.51,2.2-15.72,3.5-22.24,6.74-6.08,3.02-10.47,5.2-10.78,8.76-.44,5,7.42,9.36,10.78,11.23,9.13,5.07,17.8,5.74,22.69,6.06,25.06,1.66,39.53,1.8,39.53,1.8,18.48.17,27.98.23,40.43-.9,2.62-.24,13.89-1.36,26.5-7.41,9.98-4.79,10.51-7.73,10.56-8.76.24-5.14-9.27-9.41-14.82-11.9-8.25-3.7-15.54-4.72-22.24-5.62-7.49-1-15.41-1.23-19.65-1.19,1.7,2.68,3.67,5.17,5.36,7.84-1.94,1.37-6.58,2.12-10.52,2.92-7.4,1.52-10.65,1.22-14.47,1.43-3.33.19-5.45.42-13.13-.78-5.73-.89-8.53-1.89-11.73-3.58,1.97-3.36,3.12-5.03,5.12-8.27-.59-.07-5.12,0-6.31.02Z"/>
  <path class="st1" d="M920.21,375.15c31,42.3,62,84.59,93,126.89,3.27,3.47,8.21,9.7,10.93,18.75,1.22,4.06,1.71,7.77,1.87,10.83,2.04,22.44,3.32,46.79,3.36,72.82.03,19.84-.67,38.68-1.87,56.39-3.86,6.22-7.72,12.45-11.58,18.67,4.14,2.49,12.53,4.28,20.88,4.23,10.59-.07,17.53-1.9,22.43-4.23-3.86-6.72-7.72-13.44-11.58-20.16-1.67-22-2.35-40.86-2.61-55.64,0,0-.35-19.77,4.11-72.82.17-1.99.54-6.11,2.24-11.2,3.59-10.73,10.23-17.27,11.95-19.04,9.15-9.49,42.52-54.33,91.49-121.73-78.21-1.25-156.41-2.49-234.62-3.74Z"/>
  <path class="st1" d="M1014.88,672.33c-1.83.04-10.57.85-13.12,1.38-9.13,1.91-13.66,3.04-19.33,5.86-5.28,2.62-9.1,4.52-9.37,7.61-.38,4.34,6.45,8.14,9.37,9.76,7.94,4.41,15.47,4.99,19.72,5.27,21.78,1.45,34.36,1.56,34.36,1.56,16.06.15,24.32.2,35.14-.78,2.28-.21,12.07-1.18,23.04-6.44,8.68-4.16,9.13-6.72,9.17-7.61.21-4.47-8.05-8.18-12.88-10.35-7.17-3.22-13.5-4.11-19.33-4.88-6.51-.87-13.39-1.07-17.08-1.04,1.48,2.33,3.19,4.49,4.66,6.82-1.69,1.19-5.72,1.84-9.14,2.54-6.43,1.32-9.26,1.06-12.57,1.25-2.89.16-4.74.36-11.41-.68-4.98-.78-7.42-1.64-10.2-3.11,1.71-2.92,2.71-4.37,4.45-7.18-.51-.06-4.45,0-5.49.02Z"/>
  <path class="st1" d="M753.01,375.65c31,42.3,62,84.59,93,126.89,3.27,3.47,8.21,9.7,10.93,18.75,1.22,4.06,1.71,7.77,1.87,10.83,2.04,22.44,3.32,46.79,3.36,72.82.03,19.84-.67,38.68-1.87,56.39-3.86,6.22-7.72,12.45-11.58,18.67,4.14,2.49,12.53,4.28,20.88,4.23,10.59-.07,17.53-1.9,22.43-4.23-3.86-6.72-7.72-13.44-11.58-20.16-1.67-22-2.35-40.86-2.61-55.64,0,0-.35-19.77,4.11-72.82.17-1.99.54-6.11,2.24-11.2,3.59-10.73,10.23-17.27,11.95-19.04,9.15-9.49,42.52-54.33,91.49-121.73-78.21-1.25-156.41-2.49-234.62-3.74Z"/>
  <path class="st1" d="M847.68,672.83c-1.83.04-10.57.85-13.12,1.38-9.13,1.91-13.66,3.04-19.33,5.86-5.28,2.62-9.1,4.52-9.37,7.61-.38,4.34,6.45,8.14,9.37,9.76,7.94,4.41,15.47,4.99,19.72,5.27,21.78,1.45,34.36,1.56,34.36,1.56,16.06.15,24.32.2,35.14-.78,2.28-.21,12.07-1.18,23.04-6.44,8.68-4.16,9.13-6.72,9.17-7.61.21-4.47-8.05-8.18-12.88-10.35-7.17-3.22-13.5-4.11-19.33-4.88-6.51-.87-13.39-1.07-17.08-1.04,1.48,2.33,3.19,4.49,4.66,6.82-1.69,1.19-5.72,1.84-9.14,2.54-6.43,1.32-9.26,1.06-12.57,1.25-2.89.16-4.74.36-11.41-.68-4.98-.78-7.42-1.64-10.2-3.11,1.71-2.92,2.71-4.37,4.45-7.18-.51-.06-4.45,0-5.49.02Z"/>
  <path class="st0" d="M819,364c35.67,48.67,71.33,97.33,107,146,3.76,3.99,9.45,11.16,12.57,21.57,1.4,4.67,1.97,8.94,2.15,12.46,2.35,25.82,3.82,53.84,3.87,83.78.03,22.83-.77,44.5-2.15,64.88-4.44,7.16-8.88,14.32-13.32,21.48,4.76,2.87,14.42,4.93,24.03,4.87,12.19-.08,20.17-2.18,25.81-4.87l-13.32-23.2c-1.92-25.31-2.71-47.01-3.01-64.02,0,0-.4-22.75,4.73-83.78.19-2.29.62-7.03,2.58-12.89,4.13-12.35,11.78-19.87,13.75-21.91,10.53-10.92,48.92-62.52,105.27-140.07-89.98-1.43-179.97-2.87-269.95-4.3Z"/>
</svg>