<?xml version="1.0" encoding="UTF-8"?>
<svg id="Layer_1" xmlns="http://www.w3.org/2000/svg" version="1.1" viewBox="0 0 1920 1080">
  <!-- Generator: Adobe Illustrator 29.0.0, SVG Export Plug-In . SVG Version: 2.1.0 Build 186)  -->
  <defs>
    <style>
      .st0 {
        fill: #ffe2cc;
      }

      .st1 {
        fill: none;
        stroke: #231f20;
        stroke-miterlimit: 10;
      }

      .st2 {
        fill: #007540;
      }

      .st3 {
        fill: #ffe6ae;
      }

      .st4 {
        fill: #ffcf4a;
      }
    </style>
  </defs>
  <path class="st3" d="M789.05,603.34h0c-1.77,19.72,7.29,37.27,22.07,44.15,13.71,6.38,27.07,1.14,29.96,0,22.41-8.81,39.07-40.6,31.62-53.97-2.72-4.88-10.58-2.67-19-5.94-21.68-8.43-42.5-19.82-53.61-28.38-5.33-4.11-27.57-22.45-27.96-50.11-.06-4-4.06-26.25,10.75-38.92,10.25-8.76,22.89-6.76,27.07-5.73-.48,12.57-6.61,42.31,20.79,81.15,21.97,31.15,76.37,52.46,94.86,54.14,12.57,1.14,70.47,12.43,90.58-19.76,7.1-11.36,11-23.75,12.23-28.22-4.72,3.79-16.8,9.4-26.44,13.22-9.2,3.65-20.84,9.48-32.43,3.8-15.69-7.68-16.37-16.34-21.82-37.99-3.07-12.19-6.58-42.96,4.6-75.93,8.93-26.37,42.94-49.15,64.27-62.39,35.93-22.31,51.06-17.76,122.16-51.5,19.23-9.13,34.65-17.31,44.91-34.73,1.74-2.96,16.8-29.41,6.59-55.09-3.97-9.99-10.26-16.07-22.75-28.14-10.83-10.46-20.78-17.53-30.54-23.95-14.65-9.63-35.78-22.34-63.47-35.33.67-.28,1.5-.75,1.69-1.52.55-2.19-4.4-5.01-10.75-8.83,0,0-9.16-5.5-26.97-17.01-3.29-2.13-4.66-3.07-6.1-4.01-17.57-11.48-39.08-18.11-42.37-19.1-22.79-6.86-47.64-7.29-69.66-7.06-65.11.68-97.67,1.02-128.15,13.24-8.55,3.43-29.96,12.68-53.31,30.67-16.93,13.05-26.92,24.56-42.35,42.35-22.17,25.55-37.12,42.78-49.49,70.1-5.92,13.06-13.86,30.99-16.23,55.5-3.05,31.46,4.87,55.14,16.23,89.09,11.42,34.13,16.79,51.31,27.58,64.26,27.16,32.59,48.55,17.54,78.14,52.58,11.28,13.35,25.81,36.42,34.19,65.16,1.27,4.35,2.84,10.35,3.14,14.22"/>
  <path class="st0" d="M1186.67,300.34c.62,3.47.34,14.82-1.67,22.43-1.37,5.18-3.63,9.36-4.49,10.67-.76,1.16-3.8,7.86-4.56,9.02,1.38.24,4.62-1.05,6.33-2.18,2.02-1.35,3.53-7.85,4.35-7.74.85.11,1.32,2.77,1.33,4.39.08,6.48-6.89,12-10.87,14.68.13,2.16,1.31,8.9.2,11.55.86.3,1.48.33,2.76,1.55,1.17,1.11,2.71,3.29,2.98,3.87.74,1.58,2.14,4.43,1.88,4.53-.3.11-1.55-1.72-3.54-3.32-1.41-1.13-2.81-1.59-4.11-1.71-.08,1.48.59,5.53,1.38,8.04,2.96,9.48,2.34,5.65,6.29,12.92,6.66,12.24,15.75,28.95,18.56,39.7.17.64.52,2.05,1.44,3.74,3.86,7.08,12.38,9.19,13.67,9.49,1.08.25,1.96.37,2.45.43.3.8.69,1.93,1.01,3.31,1.41,6.08.95,14.39-3.88,21.58-4.84,7.2-11.76,9.82-14.82,10.93-2.92,1.06-5.49,1.51-7.34,1.73-.79,3.37-1.5,8.6.29,14.24,2.19,6.94,6.35,8.78,7.34,13.67.8,3.97-.43,10.27-10.93,19.85-.23,1.48-.32,3.6.72,5.61,1.4,2.7,3.79,3.2,5.47,4.46,4.76,3.57,1.74,11.82,2.45,26.76.2,4.34.53,10.5,2.59,17.84,2.79,9.92,5.79,11.44,7.91,18.13,3.76,11.84.16,25.34-5.61,34.24-8.06,12.43-20.78,16.52-29.78,19.28-18.95,5.8-22.92-.71-55.38.86-23.51,1.14-49.05,5.9-49.06,5.9-1.04,2.28-2.65,5.75-4.75,9.93-6.85,13.65-10.18,17.61-15.68,27.91-2.64,4.94-5.79,12.31-12.08,27.05-4.23,9.9-7.61,18.14-9.93,23.88,4.47,47.27,6.81,78.33,6.33,88.9-.08,1.72-.43,7.33,2.01,13.81,1.64,4.34,4.17,8.13,8.06,12.23,8.7,9.18,18.23,13.68,20,14.53,11.57,5.57,10.49,9.27,49.2,45.89,21.25,20.1,23.66,20.97,32.66,31.5,7.88,9.23,12.3,15.92,23.16,32.22,7.01,10.52,18.72,28.07,34.53,51.64-181.68.24-363.35.48-545.03.73-.19-47.64,6.4-126.61,48.96-210.14,9.42-18.5,31.71-41.2,55.48-83.77,22.33-39.99,36.25-75.19,44.6-99,5.22,1.61,13.59,3.31,23.25,1.36,20.99-4.24,36.22-23.32,38.65-41.25.49-3.6,3.63-4.52-1.95-11.17-4.16-4.96-11.72-8.58-15.77-9.46-16.75-3.63-34.32-15.11-53.61-28.38-11.72-8.06-14.83-12.53-21.39-22.9-3.33-5.26-9.81-20.86-8.41-37.22.49-5.67,1.99-23.16,16.22-31.44,9.61-5.59,19.82-3.96,23.43-3.2-1.18,11.24-1.84,32.95,8.61,56.47,12.96,29.16,35.24,43.62,48.26,52.06,36.39,23.61,75.52,25.63,91.41,26.38,21.29,1.01,36.85-.35,51.9-11.9,7.26-5.57,16.91-27.83,18.28-35.71-3.41,2.2-10.22,9.47-16.27,13.28-14.56,9.16-30.35,11.98-43,6.56-12.48-5.35-17.06-19.65-21.43-40.8-3.62-17.51-6.53-44.19,1.8-68.74,8.4-24.76,22.43-41.47,38.81-54.74,27.72-22.45,58.27-30.2,103.96-47.38,24.2-9.1,42.98-16.44,66.32-33.26,12.29-8.86,22.24-20.21,28.06-26.3Z"/>
  <path class="st1" d="M1242.7,403.15"/>
  <path class="st2" d="M727.38,844.61c8.58-5.39,23.96-12.81,53.46-13.37,57.45-1.08,101.76,25.13,148.36,53.46,22.92,13.94,84.35,53.44,144.35,124.3,8.94,10.56,25.42,24.98,30.27,31.4-32.47.66-72.37-.02-104.84.64-7.65-11.17-21.12-30.92-36.6-48.49-37.38-42.46-60.14-68.32-94.95-79.13-48.81-15.15-115.76,1.02-150.34,49.45-20.18,28.27-23.96,63.04-24.23,78.12-9.73.16-22.66-.16-32.38,0-1.21-49.31,6.89-94.3,14.54-118.81,10.73-34.4,25.1-60.43,52.37-77.58Z"/>
  <path class="st2" d="M1035.2,816.72c16.26,16.99,34.97,36.6,55.65,58.44,60.89,64.28,80.49,86.11,101.85,117.99,11.67,17.42,24.66,37.22,30.05,47.13h-17.24c-8.16-13.97-16.29-25.46-29.73-44.45-9.95-14.06-21.87-31.83-38.7-50.67-20.2-22.6-31.43-28.94-42.85-40.63-17.31-17.71-28.26-25.52-41.71-34.03-11.6-7.33-14.13-16.62-14.6-18.25-2.56-8.88-2.62-29.93-2.72-35.53Z"/>
  <path class="st4" d="M728.77,504.32c14.29-28.37,32.47-62.04,42.81-78.86,20.26-32.98,39.56-66.81,58.4-85.66,0,0,7.92-8.73,7.08-9.61-.76-.79-7.59,6.47-16.18,10.11-6.82,2.89-17.76,4.77-34.9-1.52,8.6-20.18,18.82-28.01,26.8-31.36,3.7-1.55,7.58-2.42,7.59-4.05.02-4.17-25.46-3.81-44.51-12.14-14.09-6.16-31.82-20.2-45.52-55.63,32.44,1.23,52.57,10.2,65.24,18.71,3.42,2.3,9.83,6.94,10.11,6.57.64-.83-34.31-22.31-58.16-56.14-15.39-21.83-22.35-43.4-25.79-57.65,15.48,5.2,38.88,15.13,62.71,34.39,21.74,17.57,35.66,36.3,44,49.56-3.51-7.44-6.99-15.89-10.11-25.29-4.63-13.94-7.42-26.8-9.1-37.93,11.27,3.59,26.41,10.2,40.97,22.76,26.58,22.94,34.94,51.68,37.43,60.69,1.25,4.53,2.04,8.38,2.53,11.13,10.74-18.37,26.46-41.06,49.06-63.72,32.28-32.37,70.16-54.22,93.67-65.35,12.64,8.43,42.27,24.85,42.27,28.83-14.71,6.68-39.44,14.2-55.52,24.89-55.23,36.7-88.61,82.87-107.72,115.82-1.65,4.27-3.74,10.87-4.55,19.22-.52,5.41-.79,8.11,0,11.13,2.36,9.06,9.68,10.31,13.66,19.72,1.45,3.44,2.24,7.45,2.02,12.14-2.02,30.68-4.05,61.36-6.07,92.05-3.37,2.7-6.74,5.39-10.11,8.09.43,1.48,1.42,5.67-.51,10.11-1.77,4.07-6.39,9.3-12.64,8.6-4.32-.48-8.35-3.68-9.61-8.09-1.54-5.39,1.35-11.55,7.08-14.16-4.72-2.53-9.44-5.06-14.16-7.59,2.87-29.67,5.73-59.34,8.6-89.01,1.85-4.89,3.71-9.78,5.56-14.67,3.37-3.54,6.74-7.08,10.11-10.62-1.43-.34-2.99-1.01-3.82-2.4-1.62-2.71.8-6.05-.16-6.96-1.12-1.07-6.56,1.56-13.63,7.87-22.73,20.29-44,62.29-49.95,73.83-6.08,11.79-17.52,30.99-30.01,51.51-3.48-.24-10.15.36-17.2,3.99-8.78,4.51-10.59,9.26-12.97,13.7-7.24,13.53-3.23,28.26-2.31,34.13-3.41,4.55-10.15,11.53-13.56,16.08-8.19-11.43-17.44-19.22-28.91-27.23Z"/>
</svg>