<?xml version="1.0" encoding="UTF-8"?>
<svg id="Layer_1" xmlns="http://www.w3.org/2000/svg" version="1.1" viewBox="0 0 1920 1080">
  <!-- Generator: Adobe Illustrator 29.0.0, SVG Export Plug-In . SVG Version: 2.1.0 Build 186)  -->
  <defs>
    <style>
      .st0 {
        fill: #ffe2cc;
      }

      .st1 {
        fill: #f9f7ec;
      }

      .st2 {
        fill: #231f20;
      }

      .st3 {
        fill: #f9f7ed;
      }
    </style>
  </defs>
  <rect class="st1" x="742.02" y="417.31" width="156.1" height="164.44"/>
  <path d="M679.5,425.58c2.43-.94,11.57-6.95,15.71-9.76,13.26-9.01,13.85-18.7,26.14-29.59,7.08-6.27,18.29-13.18,21.7-10.36,0,0-2.97,11.5-3.21,23.54-.52,26.03,10.16,49.51,38.83,68.54,2.77,1.84,8.44-5.38,9.64-2.61,3.91,9,20.19,33.28,30.2,51.97,3.84,7.16,17.76,19.84,27.62,34.64,5.08,7.62,2.28-27.14,14.8-74.48,4.54-17.16,6.9-19.6,9.86-35.51,2.63-14.09,5.85-32.27,1.97-54.75-4.08-23.69-18.37-33.71-13.81-39.46,3.72-4.69,14.48-.62,34.03,3.45,20.74,4.32,42.35,5.28,53.32,5.88,2.01,7.78,3.83,18.48,5.96,33.27,3.37,23.41,1.82,26.28,4.39,51.67.27,2.62-1.77,23.47,12.97,51.02,3.07,5.74,12.01,20.5,17.57,20.44,4.75-.05,5.38-6.94,6.9-9.34-.32,5.13-1.04,23.9-2.96,33.49-2.68,13.42-6.29,22.96-6.91,24.66-4.38,12.21-7.49,47.97-4.44,142.54-14.1,9.69-46.79,28.99-87.79,24.66-8.55-.9-16.3-2.71-23.18-4.93-1.94,1.96-5.37,5.03-10.36,7.4-8.07,3.83-15.59,3.6-19.24,3.45-53.65-2.2-86.31-7.4-86.31-7.4-13.62-2.17-20.43-3.25-21.21-3.45-49.62-12.92-54.46-209.24-52.21-299Z"/>
  <path class="st1" d="M649.85,746.57c4.3-13.05,17.22-24.57,29.65-27.6,25.65-6.27,45.58,24.48,58.27,16.36,7.39-4.73,6.57-18.93,6.13-26.58-1-17.38-8.88-17.84-11.25-34.76-2.94-20.99,7.46-32.71-1.02-43.96-1.83-2.43-4.57-4.86-7.16-10.22-2.17-4.48-2.66-7.77-4.09-15.33-3.13-16.63-3.28-14.31-4.09-20.45-1.03-7.81-1.21-14.65-1.02-22.49.58-23.99,3.9-29.62,4.09-42.94.18-12.53-4.31-24.71-13.29-49.07-10.21-27.7-15.77-42.23-26.58-43.96-2.92-.47-6.83-.1-16.36,6.13-10.34,6.77-29.67,19.41-39.87,44.98-7.88,19.76.75,19.53-6.13,61.34-3.91,23.74-7.73,30.1-6.13,47.02,1.17,12.38,4.72,25.05,7.16,33.74,3.53,12.57,5.05,14.53,9.2,28.62,3.4,11.53,6.36,21.57,8.18,33.74,3.12,20.89-.76,23.76,2.04,46,2.16,17.15,6.8,33.99,9.2,33.74,1.49-.16.57-6.74,3.07-14.31Z"/>
  <path class="st1" d="M946.31,357.09c4.76,21.79,7,39.77,8.18,52.14,2.93,30.89.78,43.83,8.18,66.45,6.39,19.55,17.58,39.2,24.53,37.82,5.44-1.08,3.51-14.07,10.22-16.36,9.45-3.22,18.62,20.64,48.05,34.76,5.27,2.53,6.74,2.61,16.36,7.16,7.18,3.4,18.18,8.64,29.65,16.36,8.91,5.99,8.08,6.74,19.42,15.33,20.07,15.21,31.41,23.8,39.87,20.45,7.16-2.84,5.76-11.67,12.27-21.47,6.18-9.3,19.33-19.23,50.09-21.47-7.39-14.46-11.69-26.79-14.31-35.78-3.01-10.33-4.32-18.03-9.88-19.92-6.7-2.27-12.3,6.41-20.52,4.21-4.8-1.29-5.56-4.96-11.05-11.57-7.2-8.67-11.05-8.54-33.15-24.2-3.8-2.69-9.48-6.81-16.31-12.1-.24-3.99-1.27-9.41-5.26-13.15-4.12-3.87-8.27-2.99-15.26-6.31-5.48-2.61-5.01-4.13-13.68-11.05-13.42-10.69-16.81-8.84-21.57-15.78-5.37-7.83-2.32-12.04-7.37-15.78-6.36-4.72-12.99.66-22.62-3.16-7.45-2.95-10.89-9.1-13.15-12.1-6.35-8.42-21.9-16.52-62.69-14.46Z"/>
  <path class="st3" d="M744.65,373.55c16.52,15.32,31.61,25.95,42.82,33.03,14.42,9.1,20.36,11.03,26.78,10.45,16.33-1.47,26.81-18.31,30.05-23.52,14.77-23.74,9.28-47.22,13.89-47.77,4.43-.52,14.76,20.77,16.86,43.55,2.09,22.81.4,43.01-3.65,55.33-10.81-.2-23.72-3.69-28.38-5.48-8.03-3.08-15.01-7.67-17.7-9.44-1.34-.88-2.44-1.65-3.2-2.19-5.73,5.81-13.33,13.43-22.42,22.26-12.62,12.25-16.19,15.17-19.42,15.86-7.01,1.5-29-25.64-34.49-40.89-7.2-19.96-3.57-38.82-1.12-51.19Z"/>
  <path class="st2" d="M803.84,422.74c1.8-1.81,5.17-4.71,10.22-6.45,8.05-2.78,15.06-.81,17.48,0,8.16-6.28,16.32-12.55,24.47-18.83,2.94,2.11,6.77,5.46,9.95,10.49,7.74,12.24,5.82,25.24,5.11,29.05-11.48-.27-22.95-.54-34.43-.81-1.43,1.39-4.11,3.61-8.07,4.84-7.07,2.2-13.11-.31-14.79-1.08-8.25,6.54-16.5,13.09-24.74,19.63-1.49,1.05-7.53,5.06-12.91,2.96-7.37-2.87-7.69-14.94-7.8-19.1-.23-8.66,2.88-15.36,4.84-18.83,10.22-.63,20.44-1.26,30.66-1.88Z"/>
  <path class="st0" d="M749.34,376.58c-.77-2.05-.93-3.92-.93-5.21-2.05-.79-4.98-2.12-8.09-4.35-5.57-4.01-8.27-8.43-12.33-15.24-4.16-6.98-9.07-15.43-10.03-27.17-.11-1.4-.15-2.56-.16-3.31.03,2.83-.98,3.76-1.4,4.06-2.36,1.7-7.58-.95-10.09-4.62-1.07-1.57-1.5-3.11-2.1-7.56-.8-5.98-.89-9.64-1.12-12.75-.1-1.3-1-6.48-2.8-16.81-1.56-8.93-1.98-11.34-.42-13.73,1.88-2.87,5.4-3.83,7.7-4.2-.5-7.3-1.12-17.37-1.68-29.42-.99-21.38-.68-25.13.76-29.75.49-1.57,7.49-23.13,23.14-26.7,8.05-1.84,11.64,2.61,21.36-.51,7.19-2.31,4.74-3.15,12.16-6.03,2.17-.84,6.22-1.23,25.18-.35,12.04.56,20.18,4.51,26.28,5.96,9.94,2.37,16.91,2.13,21.71,8.68,4.75,6.49,2.38,13.53,1.99,17.11-2.02,8.59-1.95,10.57-4.16,17.86,3.1,1.6,7.25,4.39,9.41,9.16,1.94,4.28,3.83,5.56,5.16,13.24,1.04,5.99-1.23,6.98,1.71,17.78.83,3.06,1.43,5.57,1.78,7.12.38-2.67,1.46-7.48,5.09-11.95,5.06-6.25,14.71-11.39,19.58-8.39,4.01,2.47,1.03,8.16,3.31,29.25.12,1.09.59,5.37,0,10.94-.54,5.09-.85,8.08-3.05,10.94-3.56,4.61-9.34,5.36-11.19,5.59-6.07.78-10.75-1.57-12.46-2.54,2.4,17.06-.85,23.1-1.53,33.06-.78,11.52,6.73,19.6,1.49,33.11-3.6,9.29-10.84,32.1-22.14,39.32-3.1,1.98-11.46,7.14-17.24,7.88-15.6,2.01-21.2-7.04-42.61-21.22-8.43-5.58-19.08-10.71-22.29-19.24Z"/>
  <path class="st2" d="M706.04,239.1c-2.72-1-5.06-51.23-1.28-63.31,1.4-4.46,5.45-16.81,17.61-25.84,8.13-6.04,15.74-7.51,25.38-9.38,11.9-2.3,33.31-6.44,44.36,3.2,1.71,1.49,5.19,5.07,10.75,5.95,4.32.68,7.49-.92,9.38-1.14,20.1-2.42,32.65,4,40.58,15.34,8.1,11.59,9.59,19.87,14,33.96.99,3.15.23,2.88,3.33,23.89,2.3,15.61,4.48,25.24.9,27.17-1.15.62-5.17,1.85-6.43,2.76-3.51,2.54-7.13,6.19-13.03,19.6-1.7-3.02-2.96-18.34-4.12-24.38-1.22-6.3-1.41-8.19-2.97-13.08-.94-2.95-4.07-5.89-10.64-9.8,1.39-6.94,2.54-12.87,2.88-17.41.49-6.55.58-8.21-.68-13.28-1.39-5.56-3.95-7.24-4.93-8.35-2.86-3.24-6.88-4.09-16.33-6.1-6.98-1.49-9.13-2.72-25.01-5.2-9.02-1.4-25.32-1.97-28.72.47-2.74,1.97-1.88,1.4-5.97,3.46-3.02,1.53-7.51,3.19-11.01,2.81-10.05-1.08-14.18.2-19.15,1.18-13.21,2.59-18.9,57.48-18.9,57.48Z"/>
  <path class="st0" d="M646.52,759.29c.23-2.75,2.65-24.4,20.43-35.42,22.22-13.78,48.13,2.51,65.22,12.79,2.99,1.8,6.6,16.29,9.36,29.45,2.07,9.9-31.89,15.88-95.01-6.81Z"/>
  <path class="st0" d="M1151.9,594.73c-4.39,14.82-4.77,28.82-5.35,50.48-.08,2.95-.39,11.99-1.94,24.16-.28,2.2-.64,4.51-1.12,7.19-3.54,19.69-9.94,38.24-9.94,38.24-6.43,18.63-10.58,23.73-7.65,27.53,5.1,6.61,21.15-4.31,35.18,4.59,8.13,5.15,8.35,12.37,12.24,12.24,7.24-.24,10.09-25.33,17.59-55.83,10.92-44.4,18.92-48.4,26-85.66,4.41-23.19,9.05-49.33,5.35-54.3-5.29-7.12-5.43-10.02-11.11-14.96-6.53.14-26.61,1.54-39.09,11.42-12.82,10.15-16.89,23.86-20.16,34.9Z"/>
</svg>