<?xml version="1.0" encoding="UTF-8"?>
<svg id="Layer_1" xmlns="http://www.w3.org/2000/svg" version="1.1" viewBox="0 0 1920 1080">
  <!-- Generator: Adobe Illustrator 29.0.0, SVG Export Plug-In . SVG Version: 2.1.0 Build 186)  -->
  <defs>
    <style>
      .st0 {
        fill: #ffe2cc;
      }

      .st1 {
        fill: #3f3f3f;
      }

      .st2 {
        fill: #eaeaea;
      }

      .st3 {
        fill: #231f20;
      }

      .st4 {
        fill: #3a3a3a;
      }

      .st5 {
        fill: #f3f4f4;
      }

      .st6 {
        fill: #2d2d2e;
      }
    </style>
  </defs>
  <rect class="st2" x="750.41" y="505.83" width="190.85" height="387.71"/>
  <path class="st4" d="M746.2,1005.22c41.23-6.63,84.04-15.28,102.54-18.1,25.71-3.92,57.64-3.21,61.47-16.08,2.06-6.94-5.99-54.42-6.08-56.71-1.44-37.08-6.79-56-1.62-126.06,2.58-34.99,6.49-113.82,19.33-166.16-13.59,7.95-28.72,35.6-46.17,43.26-27,11.84-38.7,7.05-62.85,18.9-12.91,6.34-42.31,20-48.08,38.51-4.33,13.9-7.71,24.66-2.48,46.85,1.67,7.07,4.75,23.14-.98,66.53-8.91,67.47-15.62,68.43-16.57,99.66-.44,14.57-2.93,43.56,1.49,69.4Z"/>
  <path class="st1" d="M804.34,427.97c20.11,68.46,21.08,118.69,19.62,136.45-.21,2.53-1.01,10.68,1.31,20.97,4.01,17.76,16.04,29.67,24.03,39.32,35.97-19.91,55.97-42.7,67.28-58.98,13.76-19.8,24.17-43.64,38.88-77.33,13.99-32.03,19.6-32.08,21.98-31.53,4.96,1.14.99,44.96-20.67,100.12-15.02,38.25-35.03,89.19-81.7,109.66-27.16,11.92-45.12,5.52-77.33,27.09-28.24,18.92-34.19,37.07-35.39,41.07-4.57,15.22-.08,24.35,2.18,45.44,1.64,15.29-.65,34.37-5.24,72.53-7.45,61.97-13.24,64.61-13.11,98.3.12,31.56,5.24,38.73-.44,45-10.66,11.78-48.05,7.9-167.48-63.72,10.87-20.5,21.66-41.21,32.35-62.15,73.74-144.35,139.75-303.19,193.72-442.24Z"/>
  <path class="st3" d="M508.2,652.5c14.01-11.39,28.03-22.77,42.04-34.16,5.21,10.11,47.48,95.38,5.26,172.11-13.39,24.33-31.38,40.72-45.98,51.24,9.12,32.33,1.62,136.95,1.62,150.57,0,51.25,159.23-201.84,195.46-279.32,33.55-71.74,74.17-173.91,103.79-304.81-38.61,5.62-86.96,8.64-141.89,2.63-24.91-2.72-47.75-6.93-68.32-11.82-12.91,16.02-28.55,33.48-47.3,51.24-16.9,16.01-33.39,29.48-48.61,40.73,1.31,53.87,2.63,107.73,3.94,161.6Z"/>
  <path class="st3" d="M978.97,443.55c2.97,5.98,7.84,13.8,15.77,21.02,19.61,17.87,43.5,18.99,50.99,19.04,31.18,14.67,62.36,29.35,93.53,44.02,6.36,33.95,12.13,60.97,15.77,77.52,0,0,32,145.45,49.93,291.67.71,5.82,2.13,18.61-3.5,32.5-7.6,18.74-23.45,28.1-37.84,37.14-18.07,11.34-43,27.91-73.58,51.15-36.2.7-72.41,1.4-108.61,2.1-2.77-5.9-7.69-14.71-16.12-23.12-22.41-22.36-85.61-14.9-88.82-23.42-3.83-10.17,56.58-46.29,181.74-111.98-3.5-16.35-1.82-26.94-5.33-43.29l-9.11,2.8c-.7,16.35-1.4,32.7-2.1,49.05-45.55,28.73-91.09,57.46-136.64,86.19-1.02-7.84-2.33-18.68-3.58-31.61-6.13-63.27-5.03-116.62-2.73-154.08,4.29-69.86,15.13-123.05,19.62-143.65,10.59-48.6,28.58-112.07,60.62-183.05Z"/>
  <path class="st6" d="M893.36,922.45c10.96-45.07,40.42-112.02,62.36-166.32,29.7-73.52,63.85-134.82,95.55-183.76-51.73-.48-77.98-3.98-78.75-10.5-.48-4.07,8.97-9.32,28.35-15.75-10.16-28.45-10.12-73.24-21.9-102.57-.44-1.1-3.92-3.29-4.38-2.2-8.82,20.62-25.54,64.73-35.67,95.32-23.92,72.26-32.36,130.11-34.65,147-6.86,50.65-16.36,149.01-10.91,238.78Z"/>
  <path class="st6" d="M627.56,840.34c2.55-108.73,19.66-210.84,46.2-305.56,19.95-.35,39.9-.7,59.85-1.05-8.4-16.45-16.8-32.9-25.2-49.35,32.55-22.4,69.42-53.85,101.97-76.25-3.57,18.31-12.05,46.29-16.92,65.75-3.84,15.34-14.67,57.25-35.7,115.5-11.86,32.85-29.44,104.92-89.34,211.99-10.43,18.64-34.8,49.23-41.17,59.82.04-6.91.15-13.86.31-20.85Z"/>
  <path class="st5" d="M829.95,546.56c6.03-17.88,14.67-28.7,21.49-35.27,9.78-9.43,27.8-19.88,27.82-19.85,0,0-5.25-3.23-5.25-3.23l-11.11-9.67s-9.13-7.61-26.87-32.52c-17.94-25.2-20.13-38.63-24.22-37.55-8.92,2.36-8.74,58.05-8.32,61.09,4.52,33.13,18.96,58.83,26.47,77Z"/>
  <path class="st5" d="M878.8,491.33c8.85,7.27,18.91,18.02,24.18,33.16,6.93,19.9,8.58,40.08,11.73,41.25,4.08,1.51,42.51-46.66,59.87-124.39-4.63,7.9-20.71,24.68-42.12,36.85-22.88,13-44.53,13.45-53.66,13.13Z"/>
  <path class="st3" d="M849.73,525.64c2.77,6.9,7.85,11.01,11.05,13.13.39,4.24.55,12.53-3.45,21.65-3.39,7.71-10.08,9.44-21.19,21.88-2.98,3.34-7.46,8.03-8.88,9.88,3.05,13.28,14.34,23.83,22.04,32.54,11.71-12.73,23.1-29.41,36.59-41.97.72-.67,1.43-1.33,2.15-1.99,2.23-2.06,3.17-5.16,2.46-8.11-2.53-10.53-5.06-21.06-7.6-31.59,6.6-4.38,16.2-9.57,22.81-13.94-5.04-12.13-13.16-27.91-26.45-35.69-1.61.87-35.54,20.48-34.52,26.15.11.63,4.58,7.02,5,8.06Z"/>
  <path class="st0" d="M813.72,412c2.55-8.64,6.1-15.48,5.2-22.88-3.63-2.43-8.38-6.48-10.7-12.75-1.97-5.32-1.18-9.54-.82-16.87.28-5.66.33-13.8-.82-23.86-3.14-1.14-8.72-3.65-13.58-9.05-7.61-8.46-8.24-18.23-8.64-24.27-.36-5.52-1.16-17.73,4.94-20.57,2.61-1.22,5.72-.36,8.23.82-.71-5.09-1.1-12.86,1.23-21.8,4.35-16.64,6.34-21.61,10.76-25.17-2.32-2.71-3.94-20.54-1.71-37.77,1.35-10.46,6.76-17.4,9.87-21.39,2.26-2.9,14.07-17.42,33.32-20.57,11.45-1.87,11.22,2.62,39.9,4.11,10.83.56,17.45.27,21.39,0,14.58-.99,15.71-3.12,23.45-3.29,16.73-.37,34.83,9.07,44.84,23.86,4.91,7.26,6.91,14.38,7.82,18.92,1.4,18.91,4.7,62.61,7.4,88.45,0,0,1.17,11.23,2.88,11.11,1.25-.09-.74-12.61,6.58-22.21,1.4-1.84,4.19-5.5,6.58-4.94,4.67,1.1,4.84,17.62,4.11,27.15-.9,11.71-2.72,35.48-19.34,44.43-4.36,2.35-8.6,3.06-11.52,3.29l-3.36,29.22c-.46,4.02-2.15,7.78-4.75,10.88-1.02,1.22-9.03,7.53-9.5,9.17-5.39,18.65,1.29,43.69,1.85,52.37-7.15,9.86-10.64,10.84-16,15.4-18.28,15.56-30.63,19.81-44.45,24.08-11.27,3.48-26.72,4.05-29.66,3.57-8.74-1.43-21.31-14.78-33.42-28.89-29.48-34.33-33.27-46.63-32.12-50.54Z"/>
  <path class="st3" d="M786.99,283.62c-4.52-8.6-9.55-21.55-7.83-36.58,1.63-14.19,7.47-14.45,10.65-31.94,3.63-20.05-1.58-33.31,7.1-39.82,3.87-2.9,6.37-1.37,9.46-4.73,6.09-6.63-.4-16.12,1.58-26.42,1.79-9.31,9-11.47,39.43-31.54,26.99-17.8,29.48-21.49,39.82-22.87,15.31-2.04,28.11,3.62,35.09,6.7,12.11,5.35,19.29,12.08,30.36,22.47,13.91,13.06,21.38,20.06,26.42,32.33,3.47,8.44,3.19,13.05,8.67,20.5,6.56,8.91,11.53,8.53,17.35,14.98,2.79,3.09,7.46,9.62,8.28,42.19.28,11.08.13,25.72-1.51,42.98-1.74.87-4.27,2.38-6.58,4.94-8.07,8.92-5.95,22.19-6.58,22.21-.99.04-8.61-32.09-8.84-80.41-.04-8.87.14-24.12-9.26-38.07-1.39-2.07-5.92-8.46-14.04-14.05-12.23-8.43-24.81-9.68-30.8-9.81-8.59-.19-8.21,1.81-23.45,3.29-13.58,1.32-23.89.71-26.25.56-19.91-1.3-20.29-5.82-31.46-5.08-19.58,1.3-32.79,16.14-34.53,18.15-11.35,13.12-12.55,27.84-13.2,35.69-.93,11.3,1,20.56,2.66,26.31-3.23,4.8-7.65,12.62-10.22,23.12-2.41,9.83-2.29,18.26-1.77,23.85-3.51.35-7.02.7-10.53,1.05Z"/>
  <path class="st3" d="M861.43,340.33c5.05-5.62,8.99-7.37,10.12-8.8,0,0,2.16-2.35,11.73-9.09,5.9.11,18.04-.78,23.94-.67,4.2,3.02,8.68,6.52,13.27,10.55,4.92,4.31,9.21,8.57,12.93,12.59-3.89-3.24-9.78-7.26-17.7-9.87-3.06-1.01-5.93-1.64-8.51-2.04-7.14-.8-13.11-.48-17.36,0-6.97.8-11.08,1.26-16,3.74-3.2,1.62-3.93,2.66-12.25,7.49-5.29,3.07-7.91,3.83-7.49,3.4,1.57-1.58,7.01-6.98,7.29-7.3Z"/>
</svg>