<?xml version="1.0" encoding="UTF-8"?>
<svg id="Layer_1" xmlns="http://www.w3.org/2000/svg" version="1.1" viewBox="0 0 1920 1080">
  <!-- Generator: Adobe Illustrator 29.0.0, SVG Export Plug-In . SVG Version: 2.1.0 Build 186)  -->
  <defs>
    <style>
      .st0 {
        fill: none;
      }

      .st1 {
        fill: #ffe2cc;
      }

      .st2 {
        fill: #231f20;
      }

      .st3 {
        fill: #1e0e06;
      }

      .st4 {
        fill: #bcbcbc;
      }
    </style>
  </defs>
  <path class="st1" d="M681.67,828.29c8.98-72.89,20.63-84.79,16.85-137.23-3.49-48.53-2.33-75.15,0-128.4.54-12.42,1.19-23.23,8.03-34.51,9.39-15.5,25.34-23.45,89.08-40.13,52.04-13.62,66.59-14.92,83.46-29.69,15.87-13.91,23.84-31.03,28.09-43.34-3.85-5.21-9.59-12.82-16.81-21.8-37.07-46.14-51.99-52.44-52.06-69.47-.06-13.29,9.01-13.19,28.79-46.89,14.13-24.06,10.58-25.94,24.82-52.41,17.61-32.72,29.18-54.22,52.92-63.61,5.24-2.07,26.68-9.73,45.68-.17,15.25,7.67,13.76,18.79,32.41,50.34,24.04,40.65,42.85,49.79,43.1,75.51.01,1.36-.28,8.67-.86,23.27-.78,19.63-1.19,29.53-1.9,33.79-2.66,16.06-8.41,27.63-12.76,36.37-4.09,8.23-10.36,19.05-19.83,30.51,4.67,13.29,9.34,26.57,14.01,39.86.16.45.31.9.47,1.34,8.76,7.81,30.99,14.63,53.76,22.53,11.36,3.94,16.4,5.14,48.52,19.29,25.68,11.32,30.58,4.23,54.6,15.07,38.29,17.28,44.08,21.18,50.17,27.93,12.69,14.07,16.93,29.71,19.48,39.13,4.1,15.11,1.86,18.9,3.1,58.27.47,15.03.63,9.03,2.93,56.72.12,2.58.89,18.41,1.72,37.58,3.66,83.87,5.49,125.81,6.38,171.7.67,34.48,1.05,80.81,0,136.17-201.33-.12-402.66-.24-603.99-.36-10.33-89.36-6.07-159.51-.18-207.38Z"/>
  <path class="st3" d="M882.7,90.67c-10.55,2.73-46.96,12.13-67.77,44.87-13.52,21.28-21.27,37.97-21.41,77.86-.08,22.61,7.72,54.57,18.67,88.81,16.55,51.77,73.49,88.24,77.13,86.24,2.51-1.37-25.62-19.55-35-48.69-2.64-8.2.86-32.01,16.48-47.62,13.69-13.68,23.42-5.91,43.04-18.32,24.68-15.61,34.03-43.55,40.29-62.27,6.49-19.41,8-36.38,8.24-47.62,10.72,14.97,27.68,37.87,47.62,61.36,15.73,18.52,23.59,27.78,29.31,32.97,8.21,7.45,12.04,9.68,15.57,16.48,6.97,13.45,6.54,32.81-2.74,39.75-5.39,4.04-11.85,2.44-12.11,4.49-.34,2.71,10.56,8.85,19.29,6.28,10.26-3.02,14.15-17.07,16.15-24.67,8.8-33.47-2.65-66.77-7.18-78.95-16.72-45.01-30.43-81.92-70.88-108.56-15.93-10.49-61.46-36.16-114.7-22.41Z"/>
  <path class="st0" d="M726.78,433.71"/>
  <path class="st2" d="M765.81,1035.72c5.85-33.91,8.18-109.03,10.65-170.35,3.96-98.54-7.73-131.51,11.83-169.12,17.96-34.54,62.26-72.98,179.76-86.33,30.25,2.99,94.66-7.4,138.88,28.15,27.11,21.79,45.76,30.39,55.73,44.89,11.98,17.43,14.81,74.98,19.45,104.36,6.29,39.82,4.55,61.17,1.18,109.98-2.06,29.83,9.98,95.01,15.37,147.04-141.52-3.55-291.32-5.08-432.84-8.62Z"/>
  <path class="st4" d="M845.05,735.28c-4.99-25.26-2.01-47.17,1.18-61.5,15.63-30.3,18.55-50.28,17.74-72.14-1.01-27.15-10.62-43.99-13.01-86.33-.85-15.06-4.7-32.51-4.24-40.54,13.4-9.46,31.31-20.25,44.71-29.72-1.57,20.4-.88,60,17.48,92.72,9,16.04,20.1,35.81,40.21,40.21,28.33,6.2,55.1-22.36,67.41-35.48,32.29-34.43,38.39-60.45,40.67-83.49,13.53,4.79,30.31,6.07,41.74,15.14-2.17,33.53-13.4,77.49-29.19,133.39-3.52,12.46-7.83,27.57-15.37,47.3-17.1,44.74-37.38,97.8-74.51,134.82-4.39,4.38-12.45,11.95-17.74,24.84-8.05,19.61-4.72,39.38-1.18,52.04-5.92,4.24-17.22,11.16-33.11,14.19-16.25,3.1-29.57.65-36.66-1.18-4.93-39.43-15.2-68.38-23.65-87.51-9.28-21.01-17.9-33.65-22.47-56.77Z"/>
</svg>