<?xml version="1.0" encoding="UTF-8"?>
<svg id="Layer_1" xmlns="http://www.w3.org/2000/svg" version="1.1" viewBox="0 0 1920 1080">
  <!-- Generator: Adobe Illustrator 29.0.0, SVG Export Plug-In . SVG Version: 2.1.0 Build 186)  -->
  <path d="M857.57,597.16l-10.61-.12-1.7-1.73c.07-8.46.15-17.62.22-26.23.01-1.32.5-2.59,1.43-3.53,1.33-1.33,3.18-2.7,5.61-3.36.45-.12.88-.21,1.31-.28-.03-3.16-.07-6.31-.1-9.47-.62.03-1.25.07-1.87.1v-4.83c4.18-.03,8.35-.07,12.53-.1.03,1.68.07,3.35.1,5.03l-2.66-.2.3,9.86,3.55,1.09,3.55,3.35v-4.8c0-1.24.67-2.37,1.76-2.97l4.16-2.29,1.38-.79v-2.86l-1.48-.1-.1-3.65,1.58.1v-13.32h7.3v13.02h1.87v4.83l-1.28-.1v3.26l4.54,1.97v-2.86c0-.84.23-1.67.67-2.38h0c.28-.45.59-.88.94-1.27l2.53-2.86.99-19.04h-1.58l-.3-5.52h10.06v5.52l-2.07-.1,1.09,19.33,2.37,3.45.79,1.97,3.06-2.86v-17.26h8.48v18.64l4.93,3.55v-4.14c0-1.22.4-2.4,1.15-3.36l3.59-4.63v-19.63h6.81v18.94l3.57,6.03c.57.96.87,2.06.87,3.17v5.5l4.54-2.27v-13.02l8.19.2v13.12l3.65,2.86v-7.27c0-1.7.79-3.3,2.15-4.33l2.79-2.12v-26.14h8.78v26.44l2.56,2.76,3.55-2.56v-12.33h7.3v13.61l4.24,5.28c.64.8.99,1.79.99,2.81v.29l1.6-1.32c.76-.62,1.67-1.03,2.64-1.18l1.68-.26v-16.67h8.68v16.67l1.44.7c1.19.58,2.2,1.46,2.94,2.56l.66.98,1.02-1.15c.82-.93,1.87-1.64,3.03-2.06l3.15-1.13v-15.59h7.5s0,15.49,0,15.49l4.24,1.87,1.31-1.49c.63-.72,1.37-1.33,2.18-1.84l2.13-1.31v-20.22l7.69.2v19.93l1.32.97c.89.66,1.66,1.47,2.28,2.39l1.04,1.56v2.86l4.64-9.86.49-21.01,6.31.3.59,20.52,3.65,10.06,3.35-6.31,2.37-4.34v-19.93h6.71v19.83l3.06,7.2,1.08,2.86c.59,1.57.89,3.23.89,4.9v34.19c0,.78-.57,1.43-1.34,1.54l-3.59.5h-7.99c-1,0-1.94-.45-2.56-1.23l-.59-.74-1.32,1.26c-.48.46-1.12.72-1.79.72h-11.53c-.85,0-1.66-.37-2.22-1.02l-1-1.15-.74.65c-.54.47-1.23.73-1.94.72l-11.08-.08c-.6,0-1.18-.21-1.65-.59l-1.25-1-1.42.95c-.43.28-.93.44-1.44.45l-13.61.18c-.51,0-1.01-.18-1.38-.53l-.8-.74-.46.74c-.33.52-.9.84-1.51.83l-16.74-.09c-.41,0-.8-.13-1.14-.36l-.77-.53-.22.44c-.35.69-1.06,1.12-1.83,1.09l-13.33-.45h0c-.06.78-.7,1.38-1.48,1.38h-15.23c-.54,0-1.05-.24-1.4-.65l-.54-.63-14.11-.3-1.36,1.04c-.46.35-1.02.54-1.6.54h-11.61c-.64,0-1.26-.27-1.7-.74l-.5-.54-15.39-.1-14.49-.09c-.59,0-1.16-.18-1.66-.5l-.92-.6-.49.52c-.57.61-1.37.94-2.2.92l-10.3-.31c-1.04-.03-2.04-.42-2.82-1.11l-2.04-1.8-.87.92c-.57.61-1.38.94-2.21.92l-9.54-.23Z"/>
</svg>