<?xml version="1.0" encoding="UTF-8"?>
<svg id="Layer_1" xmlns="http://www.w3.org/2000/svg" version="1.1" viewBox="0 0 1920 1080">
  <!-- Generator: Adobe Illustrator 29.0.0, SVG Export Plug-In . SVG Version: 2.1.0 Build 186)  -->
  <defs>
    <style>
      .st0 {
        fill: #5f3248;
      }

      .st1 {
        fill: #e7e7db;
      }

      .st2 {
        fill: #231f20;
      }

      .st3 {
        fill: #e0dec1;
      }

      .st4 {
        fill: #fffcd7;
      }

      .st5 {
        fill: #ca9c80;
      }

      .st6, .st7 {
        fill: #272324;
      }

      .st8, .st7 {
        stroke: #231f20;
        stroke-miterlimit: 10;
      }

      .st8, .st9 {
        fill: #333;
      }

      .st10 {
        fill: #8d8f8f;
      }

      .st11 {
        fill: #423d3e;
      }
    </style>
  </defs>
  <rect class="st1" x="884.69" y="540" width="217.13" height="337.83"/>
  <path class="st5" d="M886.22,371.95c-15.44,20.51,1.7,41.74,10.97,63.93,13.28,31.77,8.48,77.98,15.94,86.06,25.21,27.3,69.95,19.39,83.08,17.06,9.54-1.69,69.35-5.58,86.88-57.1,15.06-44.25,61.72-134.64-48.54-202.21-63.89-39.16-115.09,48.11-148.33,92.25Z"/>
  <path class="st11" d="M883.4,362.03c1.81,8.04,7.15,24.68,11.81,24.25,4.57-.42,1.91-16.65,11.39-37.96,9.18-20.64,44.4-27.86,41.33-34.59-3.36-7.35-44.39-6.61-56.93-1.9-9.06,3.4-18.08,8.85-17.29,12.44.65,2.97,7.45,2.38,9.49,7.17,1.25,2.94-.27,5.62-1.27,9.07-1.89,6.56-.7,11.84,1.48,21.51Z"/>
  <path class="st9" d="M604.44,937.29c4.61-8.32,10.72-20.97,15.16-37.26,4.43-16.27,5.35-29.42,6.32-44.21,1.83-28.21-1.27-32.63,1.26-50.52,1.24-8.74,5.61-20.45,13.89-43.58,13.57-37.9,15.21-36.8,17.05-48.63,4.04-25.87,0-49.89,0-49.89-2.22-13.24-4.65-16.3-3.16-24,.87-4.5,4.48-17.81,28.42-32.21,18.9-11.37,32.07-12.36,61.26-18.95,8.52-1.92,32.2-9.07,79.58-23.37,28.71-8.67,43.08-13.32,56.21-27.16,9.27-9.78,14.27-20.29,17.05-27.79,7.18,23.16,18.42,58.67,31.46,101.43,11.78,38.63,16.79,45.92,30.43,93.09,14.15,48.95,17.5,62.49,33.35,112.54,9.12,28.8,24.15,68.31,36.76,119.87-141.68.21-283.36.42-425.04.63Z"/>
  <path class="st8" d="M1459.54,904.48c-.03-.17-37.34,3.41-73.84,14.57-21.93,6.71-39.39,14.88-51.49,21.26h236.78c2.51-7.91,4.62-19.25,0-30.01-6.18-14.4-20.36-18.32-36.63-28.18-23.28-14.1-16.17-19.34-48.58-47.61-36.69-32.01-58.13-36.04-60.24-56.35-.76-7.36.69-20.04-5.83-23.32-4.58-2.3-9.55,1.82-12.63-.97-3.44-3.12,1.57-9.38,0-19.43-1.09-6.95-5.31-15.66-12.63-19.43-7.24-3.73-12.09.15-15.54-3.89-3.55-4.15.82-9.14-2.91-18.46-1.08-2.69-2.82-7.04-6.8-8.74-5.21-2.23-8.51,2.52-12.63.97-6.82-2.56-2.91-17.45-10.69-29.15-5.01-7.54-13.02-10.96-18.46-12.63,3.5-19.99,4.42-44.46-9.72-57.32-12.06-10.97-25.06-4.39-64.12-7.77-30.84-2.67-23.67-6.85-86.47-18.46-31.9-5.89-43.23-6.57-58.29-16.52-15.53-10.26-24.81-23.63-30.12-33.03-3.56,141.85-7.12,283.69-10.69,425.54l244.83-.97,1.94-51.49c2.17,2.46,6.45,7.03,12.63,11.66,49.97,37.44,132.17,9.98,132.13,9.72Z"/>
  <polygon class="st6" points="897.48 509.72 832.49 611.17 864.98 631.27 792.29 623.9 841.87 733.78 878.05 798.1 985.52 936.72 1029.48 936.65 897.48 509.72"/>
  <polygon class="st7" points="1078.69 510.03 1173.89 596.66 1148.32 616.48 1200.11 603.06 1177.73 725.17 1135.54 874.11 1109.98 935.4 1068.01 935.57 1078.69 510.03"/>
  <path class="st0" d="M969,563.28c4.51-1.23,10.19-2.33,16.78-2.58,11.3-.43,24.77-1,30.89,1.05,1.24,13.99,2.62,27.84-4.41,44.44-4.56-1.37-17.24-2.4-24.33-.75-6.75,1.58-12.14,3.77-13.17,1.19-3.2-8.05-6.72-16.87-5.76-43.36Z"/>
  <path class="st3" d="M1094.95,374.97c1.06,7.51,1.44,11.06,2.05,16.67.85,7.78.95,8.86,1.08,14.5s-.16,6.46-.57,11.29c-.38,4.45-2.33,10.63-.7,19.32,20.64-.31,41.28-.62,61.92-.93,9.82-3.73,16.49-8.65,20.48-12.1,5.95-5.14,11.25-7.55,10.83-13.79-.33-4.88-6.98-10.7-8.97-12.3-4.16-1.33-7.26-3.29-14.67-5.79-15.11-5.12-14.39-5.25-19.55-6.75-5.48-1.59-9.14-2.27-32.12-5.82-5.99-.92-12.61-3.19-19.78-4.28Z"/>
  <path class="st4" d="M897.48,509.72c1.19-.89,10.09,12.67,30.29,28.77,15.24,12.15,40.63,18.23,51.22,23.18-1.05,4.58-6.35,6.78-10.88,15.79-5.95,11.84-3.33,40.93-5.12,40.36-45.61-14.49-68.66-105.76-65.51-108.1Z"/>
  <path class="st4" d="M1006.21,562c12.53,10.55,16.29,35.07,17.36,47.65,8.68-3.13,32.95-24.5,46.12-51.99,10.31-21.52,9.35-47.01,6.37-47.67-1.65-.37-3.75,6.96-7.58,14.02-6.69,12.33-32,27.43-62.27,37.99Z"/>
  <path class="st0" d="M976.16,605.49l-.49,40.78-13.31,73.3,67.12,217.09,38.53-1.09,5.19-172.52-12.34-49.99-29.04-70.66-19.55-36.19s0,0-.64-2.87l-35.46,2.16Z"/>
  <path class="st2" d="M916.5,292.43c.65-6.74,1.55-13.3,2.64-19.66,10.22-5.02,26.46-11.47,47.25-13.5,30.08-2.94,52.92,5.01,64.27,9.1,0,0,27,9.73,69.26,46.37,4.89,4.24,8.09,7.99,10.27,10.86,3.05,4.02,5.13,7.68,6.46,10.27-.29,7.34-.59,14.67-.88,22.01-6.73-3.65-17.28-9.38-30.23-16.43-30.99-16.88-34.73-19-41.67-22.3-9.99-4.75-26.99-12.72-50.48-18.49-9.92-2.43-36.63-8.31-71.02-6.75-2.53.12-4.63.25-6.04.35.05-.6.11-1.21.17-1.81Z"/>
  <path class="st4" d="M918.21,272.22c4.81-14.89,14.28-24.03,18.96-28.66,30.09-29.73,24.91-33.59,38.77-40.04,3.52-1.64,22.31-10.38,41.72-4.21,11.41,3.62,11.36,8.69,24.02,13.06,16.8,5.8,25.35-.2,37.93,2.53,10.56,2.29,24.24,10.79,37.09,38.77-.28,28.07-.56,56.14-.84,84.21-4-6.76-10.4-16.21-20.1-25.75-10.79-10.61-20.45-16.2-35.97-25.04-22.03-12.55-33.04-18.82-48.67-22.57-5.67-1.36-23.47-5.22-46.55-2.47-21.44,2.55-37.81,9.65-47.66,14.84.25-1.07.67-2.72,1.3-4.68Z"/>
  <path class="st4" d="M810.36,290.04c56.3,13.15,93.68,23.93,135.92,34.96,83.66,21.83,109.48,44.3,152.22,56.4,11.35,3.21,20.71,6.25,40.11,9.85,15.68,2.91,31.34,5.63,52.88,13.75,1.1.42,5.55,1.63,7.12,5.09,1.46-11.47-27.28-29.93-36.81-32.89-5.08-1.58-17.1-6.16-38.31-15.59-3.11-1.38,0,0-22.19-11.59-17.79-9.29-28.21-15.64-32.44-17.67-16.13-7.73-26.63-15.43-43.18-21.29-18.07-6.39-32.89-10.18-44.67-13.09-15.46-3.81-50.97-5.44-80.94-3.48-2.04.13-26.51-.8-28.55-.9-12.69-.61-30.98-1.82-61.15-3.56Z"/>
  <path class="st3" d="M807.47,289.41c6.75,11.14,17.24,26.48,32.63,42.46,5.47,5.69,44.3,38.37,44.34,35.04.05-3.66-.5-12.1,2.27-26.3,3-15.35,7.05-22.45,14.37-28.91-26.61-6.16-67-16.13-93.61-22.29Z"/>
  <path class="st10" d="M918.98,488.36c3.21.31,6.09-5.01,7.08-6.68,8.74-14.78,33.3-22.01,40.85-24.09,8.77-2.42,24.09-6.64,41.9-.52,2.71.93,4.22,2.16,29.33,21.47,13.99,10.76,15.58,12.05,18.33,12.05,14.3-.03,13.47-36.72,23.38-42.76,2.81-1.72,7.71-13.01,7.73-13.01,0,0,5.26-6.86,5.26-6.86.02,0,4.5-8.93,4.5-8.93-.39,3.57,1.53,26.21,1.52,33.29,0,1.9-3.39,23.09-3.89,26.22-2.93,18.12-2.24,12.46-4.57,18.83-6.32,12.24-12.93,20.07-20.07,28.42-15.9,18.59-32.17,37.61-56.83,42.33-7.51,1.44-15.08,1.41-20.86,1.39-8.72-.03-20.4-.07-32.79-3.78-22.81-6.83-36.65-22.69-43.72-30.8-8.7-9.97-14.08-19.58-17.29-26.23-1.57-7.29-3.76-18.06-5.96-31.2-3.89-23.19-7.95-52.66-6.23-60.33.57-2.53,8.64,9.43,10.98,13.22,8.91,14.45,11.27,32.76,11.83,38.09,0,0,.69,6.53,4.44,14.05,2.44,4.89,3.97,5.73,5.1,5.84Z"/>
</svg>