<?xml version="1.0" encoding="UTF-8"?>
<svg id="Layer_1" xmlns="http://www.w3.org/2000/svg" version="1.1" viewBox="0 0 1920 1080">
  <!-- Generator: Adobe Illustrator 29.0.0, SVG Export Plug-In . SVG Version: 2.1.0 Build 186)  -->
  <defs>
    <style>
      .st0 {
        fill: #022232;
        stroke: #fff;
        stroke-miterlimit: 10;
      }

      .st1 {
        fill: #FFD772;
      }
    </style>
  </defs>
  <path class="st0" d="M225.49,711.9"/>
  <polygon class="st1" points="225.49 504.96 347.84 350.96 377.14 350.96 377.14 307.01 417.09 307.01 417.09 352.29 441.05 350.96 504.97 452.16 588.86 352.29 588.86 307.01 615.5 307.01 615.5 340.3 640.8 338.97 640.8 352.29 672.75 349.63 672.75 405.99 688.73 405.99 688.73 382.92 702.05 381.58 702.05 418.87 742 418.87 742 370.93 805.92 370.93 805.92 422.86 872.5 422.86 872.5 336.31 891.14 337.64 891.14 424.2 931.09 424.2 956.39 366.94 991.01 366.94 1025.63 307.01 1058.92 362.94 1097.54 368.27 1120.17 416.21 1291.95 418.87 1315.92 354.95 1335.89 412.21 1354.54 412.21 1354.54 378.92 1375.84 376.26 1375.84 412.21 1421.12 412.21 1470.39 352.29 1578.25 461.48 1578.25 650.57 1635.51 650.57 1663.47 821.02 225.49 821.02 225.49 504.96"/>
  <path class="st0" d="M477.01,734.46c.94-20.58,18.45-36.66,38.62-35.95,20.68.72,37.25,18.85,35.95,39.95v69.24h-75.24c0-24.82.01-39.29.67-73.24Z"/>
  <path class="st0" d="M587.3,734.46c.94-20.58,18.45-36.66,38.62-35.95,20.68.72,37.25,18.85,35.95,39.95v69.24h-75.24c0-24.82.01-39.29.67-73.24Z"/>
  <path class="st0" d="M697.59,734.46c.94-20.58,18.45-36.66,38.62-35.95,20.68.72,37.25,18.85,35.95,39.95v69.24h-75.24c0-24.82.01-39.29.67-73.24Z"/>
  <path class="st0" d="M807.61,734.46c.94-20.58,18.45-36.66,38.62-35.95,20.68.72,37.25,18.85,35.95,39.95v69.24h-75.24c0-24.82.01-39.29.67-73.24Z"/>
  <path class="st0" d="M1181.13,734.46c.94-20.58,18.45-36.66,38.62-35.95,20.68.72,37.25,18.85,35.95,39.95v69.24h-75.24c0-24.82.01-39.29.67-73.24Z"/>
  <path class="st0" d="M989.72,734.46c.94-20.58,18.45-36.66,38.62-35.95,20.68.72,37.25,18.85,35.95,39.95v69.24h-75.24c0-24.82.01-39.29.67-73.24Z"/>
  <path class="st0" d="M1293.73,734.46c.94-20.58,18.45-36.66,38.62-35.95,20.68.72,37.25,18.85,35.95,39.95v69.24h-75.24c0-24.82.01-39.29.67-73.24Z"/>
  <path class="st0" d="M1407.61,734.46c.94-20.58,18.45-36.66,38.62-35.95,20.68.72,37.25,18.85,35.95,39.95v69.24h-75.24c0-24.82.01-39.29.67-73.24Z"/>
  <path class="st0" d="M1517.95,734.46c.94-20.58,18.45-36.66,38.62-35.95,20.68.72,37.25,18.85,35.95,39.95v69.24h-75.24c0-24.82.01-39.29.67-73.24Z"/>
  <rect class="st0" x="1086.43" y="722.35" width="21.89" height="84.68"/>
  <rect class="st0" x="944.48" y="722.35" width="21.89" height="84.68"/>
  <rect class="st0" x="281.85" y="578.05" width="33.87" height="84.68"/>
  <rect class="st0" x="342.72" y="578.05" width="33.87" height="84.68"/>
  <rect class="st0" x="405.47" y="578.05" width="33.87" height="84.68"/>
  <rect class="st0" x="557.64" y="474.86" width="16.94" height="42.34"/>
  <rect class="st0" x="607.35" y="474.86" width="16.94" height="42.34"/>
  <rect class="st0" x="697.77" y="574.75" width="16.94" height="50.73"/>
  <rect class="st0" x="675.45" y="445.3" width="68.36" height="29.56"/>
  <rect class="st0" x="776.24" y="445.3" width="13.29" height="29.56"/>
  <rect class="st0" x="834.02" y="445.3" width="13.29" height="29.56"/>
  <rect class="st0" x="895.71" y="445.3" width="13.29" height="29.56"/>
  <rect class="st0" x="1300.83" y="445.3" width="67.85" height="29.56" transform="translate(2669.52 920.17) rotate(180)"/>
  <rect class="st0" x="1255.46" y="445.3" width="13.19" height="29.56" transform="translate(2524.11 920.17) rotate(180)"/>
  <rect class="st0" x="1198.11" y="445.3" width="13.19" height="29.56" transform="translate(2409.4 920.17) rotate(180)"/>
  <rect class="st0" x="1136.87" y="445.3" width="13.19" height="29.56" transform="translate(2286.93 920.17) rotate(180)"/>
  <rect class="st0" x="1003.61" y="439.07" width="15.96" height="29.56"/>
  <rect class="st0" x="1026.7" y="497.77" width="15.96" height="29.56"/>
  <rect class="st0" x="1026.7" y="439.07" width="15.96" height="29.56"/>
  <rect class="st0" x="1003.61" y="497.77" width="15.96" height="29.56"/>
  <rect class="st0" x="995.97" y="574.75" width="54.75" height="86.08"/>
  <rect class="st0" x="709.65" y="504.96" width="16.94" height="29.82"/>
  <rect class="st0" x="832.19" y="504.96" width="16.94" height="29.82"/>
  <rect class="st0" x="895.71" y="507.23" width="32.68" height="22.58"/>
  <rect class="st0" x="784.86" y="574.75" width="16.94" height="50.73"/>
  <rect class="st0" x="763.76" y="491.84" width="34.55" height="50.73"/>
  <rect class="st0" x="1330.63" y="504.96" width="17.7" height="29.82" transform="translate(2678.97 1039.75) rotate(180)"/>
  <rect class="st0" x="1202.54" y="504.96" width="17.7" height="29.82" transform="translate(2422.78 1039.75) rotate(180)"/>
  <rect class="st0" x="1119.68" y="507.23" width="34.16" height="22.58" transform="translate(2273.53 1037.03) rotate(180)"/>
  <rect class="st0" x="1255.66" y="491.84" width="36.11" height="50.73" transform="translate(2547.43 1034.41) rotate(180)"/>
  <rect class="st0" x="868.5" y="574.75" width="16.94" height="50.73"/>
  <rect class="st0" x="1168.22" y="574.75" width="16.94" height="50.73"/>
  <rect class="st0" x="1255.31" y="574.75" width="16.94" height="50.73"/>
  <rect class="st0" x="1338.95" y="574.75" width="16.94" height="50.73"/>
  <rect class="st0" x="1434.2" y="475.34" width="32.99" height="32.99"/>
  <rect class="st0" x="1434.2" y="529.81" width="32.99" height="32.99"/>
  <rect class="st0" x="1513.13" y="529.81" width="32.99" height="32.99"/>
  <rect class="st0" x="1513.13" y="475.34" width="32.99" height="32.99"/>
</svg>