<?xml version="1.0" encoding="UTF-8"?>
<svg id="Layer_1" xmlns="http://www.w3.org/2000/svg" version="1.1" viewBox="0 0 1920 1080">
  <!-- Generator: Adobe Illustrator 29.0.0, SVG Export Plug-In . SVG Version: 2.1.0 Build 186)  -->
  <defs>
    <style>
      .st0 {
        fill: #fff;
      }

      .st1 {
        stroke: #000;
        stroke-miterlimit: 10;
      }
    </style>
  </defs>
  <path class="st1" d="M918.81,746.59c-.39-1.55-.77-3.1-1.16-4.64,3.77-1.67,7.53-3.35,11.3-5.02.56-4.18.12-7.41-.42-9.62-1.07-4.39-2.93-6.62-2.51-10.46.26-2.37,1.27-4.23,2.09-5.44.14-26.22.28-52.43.42-78.65-1.46-.99-3.35-2.64-3.77-5.02-.31-1.76.41-2.61.42-4.6,0-3.05-1.67-4.69-2.93-7.11-2.14-4.12-.8-6.18-1.67-11.71-1.07-6.79-3.72-7.81-6.69-15.48-1.42-3.66-3-9.08-3.35-16.32-12.13-10.88-24.26-21.75-36.4-32.63-1.89-.69-4.67-1.93-7.53-4.18-2.94-2.31-7.29-5.73-8.37-11.71-.83-4.65.49-9.87,3.77-13.39,2.96-3.18,6.69-4.11,8.79-4.6,13.74-3.23,28.73-5.44,34.72-6.28-2.07-3.94-4.15-7.88-6.22-11.82-.21,1.66-.41,3.32-.62,4.98-1.71.34-3.86.52-4.77-.62-1.27-1.59.5-4.9,1.04-6.01,1.9-3.93,3.08-10.76-.21-23.43h-4.56c-.74-4.09-1.23-9.7-.21-16.17,2.28-14.42,10.59-23.84,14.3-27.57-2.31-5.21-4.92-10.62-7.88-16.17-6.29-11.81-12.99-22.09-19.49-30.89-.35-4.49-.69-8.98-1.04-13.48,3.98-1,8.81-1.8,14.3-1.87,14.4-.18,25.59,4.74,31.72,8.09,1.17,4.84,2.35,9.67,3.52,14.51l4.15-3.32c-2.01-6.15-1.23-9.37,0-11.2.57-.84,1.7-2.08,2.07-4.15.32-1.74-.04-3.29-.41-4.35-.97.83-1.93,1.66-2.9,2.49,4.77-7.74,9.54-15.48,14.3-23.22l-3.32,21.56c2.53-.25,6.1-.45,10.37-.21,7.28.42,12.05.76,14.51,4.15.73,1,1.84,3.07,1.45,6.84.07,2.62.19,6.16.41,10.37.31,5.76.57,7.91.41,12.02-.23,6.13-1.08,8.65-1.87,10.37-1.06,2.31-1.69,2.49-2.49,4.35-1.01,2.37-1.61,5.92,0,11.2,1.73.87,4.29,2.32,7.05,4.56,5.47,4.44,8.28,9.23,9.12,10.57,3.06,4.89,9.81,12.02,26.12,21.77,2.56.9,5.11,1.8,7.67,2.7,9.74,9.05,19.49,18.11,29.23,27.16,3.97-1.34,7.27-2.18,9.54-2.7,4.33-.99,5.24-.87,7.26-1.87,4.1-2.02,4.38-4.47,7.26-5.8,2.15-.99,5.67-1.33,11.61,1.87-.83,2-1.66,4.01-2.49,6.01-2.35.97-4.7,1.93-7.05,2.9,1.8.07,3.59.14,5.39.21-.42.66-.84,1.32-1.26,1.98-1.77.25-4.45.81-7.38,2.23-4.05,1.95-5.87,4.21-7.7,5.54-2.94,2.13-8.38,3.63-19.35-.06-12.54-7.64-25.08-15.28-37.62-22.91-.85-1.21-1.7-2.42-2.55-3.63-4.69-1.17-10.83-3.21-17.44-6.87-5.74-3.19-10.21-6.69-13.49-9.67-.49-.18-1.21-.36-2.04-.25-4.18.51-6.41,7.58-7.57,11.27-1.58,5.02-2.84,9.01-1.89,13.89,1.45,7.38,6.36,8.64,12.67,19.55,1.46,2.52,3.64,6.29,5.11,11.11,1.23,4.01,5.53,20.36-4.22,34.44-5.53,7.99-13.12,11.7-17.33,13.33-.67,6.15-1.33,12.3-2,18.44,3.11.52,6.22,1.04,9.33,1.56-.07,2-.15,4-.22,6-3.26.07-6.52.15-9.78.22.23,1.96.79,4.73,2.22,7.78,1.92,4.08,4.54,6.75,6.22,8.22.42,1.74.92,4.92,0,8.67-1.54,6.24-5.96,9.68-7.33,10.67-.55,4.54-.67,8.24-.67,10.89,0,2.41.11,3.59.22,4.44.52,4.08,1.79,6.95,2.22,8,2.14,5.17,4.45,15.83,1.33,25.33-.6,1.84-1.74,4.63-4,7.78-1.19,10.96-2.37,21.92-3.56,32.89,3.23,1.39,4.94,3.31,5.78,4.44,2.22,3.02,2.51,6.27,2.89,10.67.27,3.14.16,5.75,0,7.56.59,1.7,1.19,3.41,1.78,5.11-1.11.89-2.22,1.78-3.33,2.67l-5.33-8.44c-1.22,1.05-2.75,2.64-4,4.89-2.87,5.17-2.31,10.3-2,12.22-7.24,1.04-14.48,2.09-21.73,3.13Z"/>
  <path class="st0" d="M892.88,372.54l15.18,14.69c1.22-5.63,2.45-11.26,3.67-16.89-6.28.73-12.57,1.47-18.85,2.2Z"/>
  <path class="st1" d="M1035.01,746.59c-.39-1.55-.77-3.1-1.16-4.64,3.77-1.67,7.53-3.35,11.3-5.02.56-4.18.12-7.41-.42-9.62-1.07-4.39-2.93-6.62-2.51-10.46.26-2.37,1.27-4.23,2.09-5.44.14-26.22.28-52.43.42-78.65-1.46-.99-3.35-2.64-3.77-5.02-.31-1.76.41-2.61.42-4.6,0-3.05-1.67-4.69-2.93-7.11-2.14-4.12-.8-6.18-1.67-11.71-1.07-6.79-3.72-7.81-6.69-15.48-1.42-3.66-3-9.08-3.35-16.32-12.13-10.88-24.26-21.75-36.4-32.63-1.89-.69-4.67-1.93-7.53-4.18-2.94-2.31-7.29-5.73-8.37-11.71-.83-4.65.49-9.87,3.77-13.39,2.96-3.18,6.69-4.11,8.79-4.6,13.74-3.23,28.73-5.44,34.72-6.28-2.07-3.94-4.15-7.88-6.22-11.82-.21,1.66-.41,3.32-.62,4.98-1.71.34-3.86.52-4.77-.62-1.27-1.59.5-4.9,1.04-6.01,1.9-3.93,3.08-10.76-.21-23.43h-4.56c-.74-4.09-1.23-9.7-.21-16.17,2.28-14.42,10.59-23.84,14.3-27.57-2.31-5.21-4.92-10.62-7.88-16.17-6.29-11.81-12.99-22.09-19.49-30.89-.35-4.49-.69-8.98-1.04-13.48,3.98-1,8.81-1.8,14.3-1.87,14.4-.18,25.59,4.74,31.72,8.09,1.17,4.84,2.35,9.67,3.52,14.51l4.15-3.32c-2.01-6.15-1.23-9.37,0-11.2.57-.84,1.7-2.08,2.07-4.15.32-1.74-.04-3.29-.41-4.35-.97.83-1.93,1.66-2.9,2.49,4.77-7.74,9.54-15.48,14.3-23.22l-3.32,21.56c2.53-.25,6.1-.45,10.37-.21,7.28.42,12.05.76,14.51,4.15.73,1,1.84,3.07,1.45,6.84.07,2.62.19,6.16.41,10.37.31,5.76.57,7.91.41,12.02-.23,6.13-1.08,8.65-1.87,10.37-1.06,2.31-1.69,2.49-2.49,4.35-1.01,2.37-1.61,5.92,0,11.2,1.73.87,4.29,2.32,7.05,4.56,5.47,4.44,8.28,9.23,9.12,10.57,3.06,4.89,9.81,12.02,26.12,21.77,2.56.9,5.11,1.8,7.67,2.7,9.74,9.05,19.49,18.11,29.23,27.16,3.97-1.34,7.27-2.18,9.54-2.7,4.33-.99,5.24-.87,7.26-1.87,4.1-2.02,4.38-4.47,7.26-5.8,2.15-.99,5.67-1.33,11.61,1.87-.83,2-1.66,4.01-2.49,6.01-2.35.97-4.7,1.93-7.05,2.9,1.8.07,3.59.14,5.39.21-.42.66-.84,1.32-1.26,1.98-1.77.25-4.45.81-7.38,2.23-4.05,1.95-5.87,4.21-7.7,5.54-2.94,2.13-8.38,3.63-19.35-.06-12.54-7.64-25.08-15.28-37.62-22.91-.85-1.21-1.7-2.42-2.55-3.63-4.69-1.17-10.83-3.21-17.44-6.87-5.74-3.19-10.21-6.69-13.49-9.67-.49-.18-1.21-.36-2.04-.25-4.18.51-6.41,7.58-7.57,11.27-1.58,5.02-2.84,9.01-1.89,13.89,1.45,7.38,6.36,8.64,12.67,19.55,1.46,2.52,3.64,6.29,5.11,11.11,1.23,4.01,5.53,20.36-4.22,34.44-5.53,7.99-13.12,11.7-17.33,13.33-.67,6.15-1.33,12.3-2,18.44,3.11.52,6.22,1.04,9.33,1.56-.07,2-.15,4-.22,6-3.26.07-6.52.15-9.78.22.23,1.96.79,4.73,2.22,7.78,1.92,4.08,4.54,6.75,6.22,8.22.42,1.74.92,4.92,0,8.67-1.54,6.24-5.96,9.68-7.33,10.67-.55,4.54-.67,8.24-.67,10.89,0,2.41.11,3.59.22,4.44.52,4.08,1.79,6.95,2.22,8,2.14,5.17,4.45,15.83,1.33,25.33-.6,1.84-1.74,4.63-4,7.78-1.19,10.96-2.37,21.92-3.56,32.89,3.23,1.39,4.94,3.31,5.78,4.44,2.22,3.02,2.51,6.27,2.89,10.67.27,3.14.16,5.75,0,7.56.59,1.7,1.19,3.41,1.78,5.11-1.11.89-2.22,1.78-3.33,2.67l-5.33-8.44c-1.22,1.05-2.75,2.64-4,4.89-2.87,5.17-2.31,10.3-2,12.22-7.24,1.04-14.48,2.09-21.73,3.13Z"/>
  <path class="st1" d="M1152.95,754.84c-.39-1.55-.77-3.1-1.16-4.64,3.77-1.67,7.53-3.35,11.3-5.02.56-4.18.12-7.41-.42-9.62-1.07-4.39-2.93-6.62-2.51-10.46.26-2.37,1.27-4.23,2.09-5.44.14-26.22.28-52.43.42-78.65-1.46-.99-3.35-2.64-3.77-5.02-.31-1.76.41-2.61.42-4.6,0-3.05-1.67-4.69-2.93-7.11-2.14-4.12-.8-6.18-1.67-11.71-1.07-6.79-3.72-7.81-6.69-15.48-1.42-3.66-3-9.08-3.35-16.32-12.13-10.88-24.26-21.75-36.4-32.63-1.89-.69-4.67-1.93-7.53-4.18-2.94-2.31-7.29-5.73-8.37-11.71-.83-4.65.49-9.87,3.77-13.39,2.96-3.18,6.69-4.11,8.79-4.6,13.74-3.23,28.73-5.44,34.72-6.28-2.07-3.94-4.15-7.88-6.22-11.82-.21,1.66-.41,3.32-.62,4.98-1.71.34-3.86.52-4.77-.62-1.27-1.59.5-4.9,1.04-6.01,1.9-3.93,3.08-10.76-.21-23.43h-4.56c-.74-4.09-1.23-9.7-.21-16.17,2.28-14.42,10.59-23.84,14.3-27.57-2.31-5.21-4.92-10.62-7.88-16.17-6.29-11.81-12.99-22.09-19.49-30.89-.35-4.49-.69-8.98-1.04-13.48,3.98-1,8.81-1.8,14.3-1.87,14.4-.18,25.59,4.74,31.72,8.09,1.17,4.84,2.35,9.67,3.52,14.51l4.15-3.32c-2.01-6.15-1.23-9.37,0-11.2.57-.84,1.7-2.08,2.07-4.15.32-1.74-.04-3.29-.41-4.35-.97.83-1.93,1.66-2.9,2.49,4.77-7.74,9.54-15.48,14.3-23.22l-3.32,21.56c2.53-.25,6.1-.45,10.37-.21,7.28.42,12.05.76,14.51,4.15.73,1,1.84,3.07,1.45,6.84.07,2.62.19,6.16.41,10.37.31,5.76.57,7.91.41,12.02-.23,6.13-1.08,8.65-1.87,10.37-1.06,2.31-1.69,2.49-2.49,4.35-1.01,2.37-1.61,5.92,0,11.2,1.73.87,4.29,2.32,7.05,4.56,5.47,4.44,8.28,9.23,9.12,10.57,3.06,4.89,9.81,12.02,26.12,21.77,2.56.9,5.11,1.8,7.67,2.7,9.74,9.05,19.49,18.11,29.23,27.16,3.97-1.34,7.27-2.18,9.54-2.7,4.33-.99,5.24-.87,7.26-1.87,4.1-2.02,4.38-4.47,7.26-5.8,2.15-.99,5.67-1.33,11.61,1.87-.83,2-1.66,4.01-2.49,6.01-2.35.97-4.7,1.93-7.05,2.9,1.8.07,3.59.14,5.39.21-.42.66-.84,1.32-1.26,1.98-1.77.25-4.45.81-7.38,2.23-4.05,1.95-5.87,4.21-7.7,5.54-2.94,2.13-8.38,3.63-19.35-.06-12.54-7.64-25.08-15.28-37.62-22.91-.85-1.21-1.7-2.42-2.55-3.63-4.69-1.17-10.83-3.21-17.44-6.87-5.74-3.19-10.21-6.69-13.49-9.67-.49-.18-1.21-.36-2.04-.25-4.18.51-6.41,7.58-7.57,11.27-1.58,5.02-2.84,9.01-1.89,13.89,1.45,7.38,6.36,8.64,12.67,19.55,1.46,2.52,3.64,6.29,5.11,11.11,1.23,4.01,5.53,20.36-4.22,34.44-5.53,7.99-13.12,11.7-17.33,13.33-.67,6.15-1.33,12.3-2,18.44,3.11.52,6.22,1.04,9.33,1.56-.07,2-.15,4-.22,6-3.26.07-6.52.15-9.78.22.23,1.96.79,4.73,2.22,7.78,1.92,4.08,4.54,6.75,6.22,8.22.42,1.74.92,4.92,0,8.67-1.54,6.24-5.96,9.68-7.33,10.67-.55,4.54-.67,8.24-.67,10.89,0,2.41.11,3.59.22,4.44.52,4.08,1.79,6.95,2.22,8,2.14,5.17,4.45,15.83,1.33,25.33-.6,1.84-1.74,4.63-4,7.78-1.19,10.96-2.37,21.92-3.56,32.89,3.23,1.39,4.94,3.31,5.78,4.44,2.22,3.02,2.51,6.27,2.89,10.67.27,3.14.16,5.75,0,7.56.59,1.7,1.19,3.41,1.78,5.11-1.11.89-2.22,1.78-3.33,2.67l-5.33-8.44c-1.22,1.05-2.75,2.64-4,4.89-2.87,5.17-2.31,10.3-2,12.22-7.24,1.04-14.48,2.09-21.73,3.13Z"/>
  <path class="st0" d="M1002.36,371.48l15.18,14.69c1.22-5.63,2.45-11.26,3.67-16.89-6.28.73-12.57,1.47-18.85,2.2Z"/>
</svg>