<?xml version="1.0" encoding="UTF-8"?>
<svg id="Layer_1" xmlns="http://www.w3.org/2000/svg" version="1.1" viewBox="0 0 1920 1080">
  <!-- Generator: Adobe Illustrator 29.0.0, SVG Export Plug-In . SVG Version: 2.1.0 Build 186)  -->
  <polygon points="612 449.61 612 461.61 879.68 191 869.11 191 612 449.61"/>
  <path d="M627.58,274.73c6.04.46,17,.51,29.4-4.26,18.45-7.09,28.27-20.27,31.34-24.76,12.18-17.82,11.93-35.99,11.61-41.78h162.11l-8.12,8.9c-24.37.31-48.75.7-73.12,1.16-23.73.45-47.46.96-71.19,1.55-.15,5.48-1.09,14.15-5.42,23.6-4.33,9.46-8.81,17.25-15.15,23.54-8,7.93-19.41,15.9-35.92,20.18-6.76,1.75-12.55,1.99-16.25,1.93l.39,145.08c-3.35,3.61-6.71,7.22-10.06,10.83.13-55.33.26-110.65.39-165.98Z"/>
  <rect x="659.71" y="299.07" width="4.16" height="79.5"/>
  <rect x="760.99" y="197.66" width="4.16" height="79.5" transform="translate(523.72 999.88) rotate(-89.85)"/>
  <rect x="721.67" y="265.53" width="4.16" height="69.32" transform="translate(.27 601.03) rotate(-45.11)"/>
  <rect x="677.3" y="294.57" width="4.16" height="67.52" transform="translate(-48.33 128.83) rotate(-10.46)"/>
  <rect x="726.68" y="253.42" width="4.16" height="43.49" transform="translate(131.65 775.44) rotate(-60.64)"/>
  <rect x="695.83" y="285.2" width="4.16" height="43.49" transform="translate(-60.92 380.84) rotate(-29.3)"/>
  <rect x="750.21" y="223.07" width="4.16" height="67.52" transform="translate(366.39 951.8) rotate(-79.81)"/>
  <polygon points="659.71 218.33 635.07 211.87 642.57 239.59 659.71 218.33"/>
</svg>